<svg width="110" height="64" viewBox="0 0 110 64" fill="none" xmlns="http://www.w3.org/2000/svg">
<path d="M109.317 13.4127C108.539 14.0714 107.662 14.5736 106.67 14.7759C106.25 14.8594 105.681 15.2463 105.388 14.8794C105.117 14.5336 105.726 14.1737 105.85 13.7879C105.86 13.7585 105.88 13.7326 105.891 13.7056C107.686 9.48677 108.491 4.43171 106.996 0C104.582 8.90811 94.9858 15.2346 87.8451 20.2191C86.5187 21.1494 85.1733 22.0433 83.6754 23.0653C84.0041 21.661 84.0466 20.4637 84.0644 19.2593C84.0738 18.5537 83.8279 18.4925 83.2806 18.743C83.0595 18.843 82.823 18.9089 82.5984 18.9994C78.9442 20.4861 75.8597 22.8348 72.9609 25.4235C70.1331 27.9499 66.8973 29.1307 63.113 28.8237C62.847 28.8014 62.5751 28.792 62.3942 28.4874C63.0444 27.9428 63.9193 27.7205 64.5459 27.0184C61.4851 27.1477 60.3584 26.1116 59.4481 23.7369C59.2471 23.2135 59.311 22.8454 59.6515 22.3561C60.9519 20.4884 61.1032 18.4831 60.0061 16.466C58.9421 14.5077 57.2161 13.5256 55.0065 13.575H54.9817V13.5892C52.7792 13.5456 51.0626 14.5301 49.9998 16.4801C48.8991 18.4996 49.054 20.5025 50.3545 22.3714C50.6949 22.8619 50.7611 23.23 50.5602 23.7522C49.6428 26.1268 48.5161 27.1607 45.4506 27.0301C46.076 27.7358 46.952 27.9534 47.6034 28.4991C47.4202 28.8037 47.1483 28.8132 46.8846 28.8355C43.1015 29.1413 39.8622 27.9616 37.0355 25.4353C34.1367 22.8478 31.0511 20.4955 27.3969 19.0112C27.1722 18.9206 26.9358 18.8548 26.7171 18.7548C26.1662 18.5043 25.9214 18.5678 25.9321 19.2699C25.9486 20.4755 25.9912 21.6728 26.3222 23.0771C24.822 22.055 23.4766 21.1565 22.1501 20.2308C15.0202 15.2499 5.41813 8.92458 3.00876 0.0164677C1.51443 4.44818 2.31479 9.50559 4.10941 13.7209C4.12123 13.7491 4.14015 13.775 4.14961 13.802C4.27492 14.1949 4.88377 14.5501 4.61185 14.8935C4.32103 15.2652 3.75001 14.8759 3.33151 14.79C2.33726 14.5901 1.46123 14.0843 0.68569 13.4292C0.4788 13.2551 0.30856 13.0234 0 13.0223V13.2034C0.288463 14.2713 0.548552 15.351 0.873663 16.4072C1.39739 18.0973 1.99678 19.8098 2.92009 21.3305C3.16363 21.7304 5.68177 25.4094 5.98323 25.4094C4.89914 25.7834 3.56913 25.48 2.47558 25.1401C1.99559 24.9907 1.64802 24.9048 1.33118 25.4106C0.996615 25.9387 1.53098 26.0386 1.71659 26.2633C4.16734 29.246 6.83916 32.004 10.0276 34.2234C10.0666 34.2481 10.0666 34.3269 10.108 34.4516H8.14789C11.1945 37.8142 14.9161 39.302 19.1579 39.8865C18.6649 40.5087 17.9296 40.6205 17.4354 41.1885C20.2799 41.9942 23.1101 42.0401 26.1543 41.8448C25.1967 42.4635 24.3621 43.0022 23.5274 43.5432C23.5345 43.6196 23.5393 43.6949 23.5452 43.7784C28.7789 44.5111 34.009 45.0463 39.2238 43.2303C39.0157 44.0842 39.0157 44.0842 37.0568 45.6426C39.6577 47.0046 44.0567 46.7223 47.3776 43.7067C47.3244 45.178 46.2841 46.5294 45.2945 47.5397C44.8311 48.0102 41.6438 51.0129 40.8931 50.5506C42.1431 51.3206 43.3927 52.0926 44.6419 52.8665C45.1905 53.204 45.8053 53.6521 45.8147 54.2943C45.823 55.0106 45.0463 55.6245 45.2236 56.3208C45.3111 56.6736 45.6291 56.9242 45.9329 57.1441C47.7205 58.459 49.5222 59.7563 51.2825 61.1065C52.2283 61.8263 53.7096 63.4917 55.0372 63.4094V63.3929C56.3531 63.4365 57.8143 61.8028 58.7459 61.0901C60.5062 59.7398 62.3091 58.4426 64.0978 57.13C64.3945 56.9112 64.7126 56.6595 64.8071 56.3067C64.9786 55.6116 64.2018 54.9988 64.216 54.2802C64.2231 53.638 64.8379 53.1899 65.3864 52.8524L69.1364 50.5365C68.3869 50.9987 65.1996 47.9984 64.735 47.5256C63.7455 46.52 62.704 45.1639 62.6508 43.6925C65.9728 46.7082 70.3707 46.9928 72.9716 45.6297C71.0091 44.076 71.0091 44.076 70.801 43.2139C76.0158 45.0275 81.2436 44.4923 86.4773 43.7596C86.4773 43.6831 86.4903 43.6055 86.495 43.5244L83.8681 41.8284C86.9147 42.0212 89.7438 41.9777 92.587 41.1697C92.0929 40.604 91.3575 40.4911 90.8657 39.8689C95.1063 39.2808 98.828 37.7954 101.875 34.4339H99.8932C99.9334 34.3081 99.9357 34.2317 99.9724 34.1987C103.164 31.9793 105.833 29.2225 108.283 26.2409C108.469 26.0139 109.006 25.914 108.669 25.3859C108.348 24.8825 108.004 24.966 107.524 25.1154C106.432 25.4553 105.103 25.7587 104.019 25.3847C104.318 25.3847 106.839 21.7057 107.081 21.3058C108.004 19.7851 108.605 18.0726 109.126 16.3825C109.451 15.324 109.712 14.249 110 13.181V12.9987C109.691 13.0093 109.527 13.2387 109.317 13.4127ZM83.8303 24.0368C87.9018 21.4585 91.8148 18.6405 95.5485 15.598C99.3245 12.5083 103.007 9.3033 105.738 5.18444C106.019 4.76103 106.178 4.25293 106.702 3.82247C106.849 7.99777 106.274 11.9049 103.805 15.2852C102.534 17.0247 100.868 18.4372 99.2843 19.8933C96.9602 22.0153 94.5038 23.9893 91.9297 25.8034C87.0436 29.2636 81.7969 32.0017 76.0264 33.6953C75.9472 33.7177 75.8538 33.6847 75.6647 33.6683C76.2109 33.1755 76.6826 32.7274 77.1815 32.304C79.4856 30.3645 81.2412 27.9981 82.6516 25.3647C82.9181 24.8252 83.3252 24.3667 83.8303 24.0368ZM50.2551 19.304C50.1724 16.4225 52.3725 14.5077 54.8599 14.5207H55.0242V14.5042H55.1425C57.6251 14.4936 59.8276 16.406 59.7449 19.2876C59.715 20.476 59.2202 21.6058 58.3657 22.4368C57.5112 23.2678 56.3645 23.7342 55.1696 23.7369C55.1046 23.7369 55.0408 23.7369 54.9793 23.7369V23.7534H54.8304C53.6353 23.7507 52.4885 23.2843 51.6339 22.4534C50.7792 21.6224 50.2841 20.4925 50.254 19.304H50.2551ZM3.30077 3.83893C3.82331 4.26823 3.98291 4.77985 4.26428 5.20091C6.99404 9.31741 10.6755 12.5248 14.4539 15.6145C18.1869 18.6568 22.0992 21.4747 26.1697 24.0533C26.6767 24.383 27.0851 24.8425 27.3519 25.3835C28.7623 28.0134 30.5179 30.381 32.8221 32.3228C33.321 32.7427 33.7939 33.1966 34.3412 33.6894C34.1509 33.7036 34.0563 33.7377 33.9795 33.7141C28.2079 32.0229 22.96 29.2848 18.0762 25.8234C15.5006 24.0107 13.0433 22.0371 10.7192 19.9145C9.13504 18.4584 7.46929 17.0435 6.20076 15.3063C3.72637 11.9214 3.15063 8.01307 3.30077 3.83893ZM4.89322 22.7031C3.31377 20.4684 2.24031 17.9868 1.49788 15.1887C2.13746 15.3992 2.58907 15.5874 3.05959 15.6956C3.53012 15.8038 3.99237 16.0014 4.4889 15.9309C5.16041 15.8332 5.62266 16.1226 6.07663 16.5989C10.0962 20.833 14.4822 24.6249 19.379 27.8252C20.4146 28.5015 21.4645 29.1589 22.5084 29.8246C19.1674 29.0954 15.9198 28.1275 12.6817 27.136C11.6934 26.8337 10.7381 26.4244 9.74152 26.168C7.66199 25.6329 6.09791 24.4097 4.89322 22.7031ZM7.42082 30.9714C5.8189 29.5871 4.42743 28.0028 2.9863 26.3597C3.35042 26.268 3.60224 26.3597 3.86705 26.3821C4.98071 26.4997 6.10264 26.6444 7.21511 26.6173C7.78171 26.5902 8.34846 26.6675 8.88678 26.8455C13.365 28.385 17.9095 29.7059 22.4823 30.9361C24.0902 31.3689 25.7618 31.583 27.2987 32.2451C29.5319 33.2061 31.7829 34.0952 34.1474 34.6962C35.7493 35.102 37.4316 35.2961 39.024 36.3534C38.4329 36.4793 38.0262 36.631 37.6184 36.6404C33.5988 36.7333 29.5792 36.7004 25.5762 36.4381C22.3488 36.2264 19.1378 35.7712 15.9506 35.1996C13.8899 34.8303 11.8069 34.5245 10.108 33.1331C9.22016 32.4039 8.29093 31.7229 7.42082 30.9714ZM14.5047 37.7389C13.1546 37.1591 11.8518 36.4969 10.7523 35.4313C15.3985 35.8806 19.9228 37.0556 24.5914 37.3484C23.5073 37.9236 22.3346 38.22 21.2907 38.8021C20.9416 38.9922 20.5404 39.0656 20.1463 39.0115C18.2181 38.7916 16.304 38.514 14.5047 37.7389ZM20.0127 40.7287C22.5119 38.4211 29.7932 36.8733 34.3176 37.7048C32.5147 38.3434 30.9412 39.182 29.3463 39.9783C28.8616 40.2229 28.423 40.5664 27.8626 40.6463C25.2771 40.9992 22.6916 41.2215 20.0127 40.7287ZM37.4789 42.821C33.7749 43.7478 30.0308 43.4091 26.1295 43.1915C26.3293 42.9692 26.4061 42.8387 26.5208 42.7657C29.0212 41.2074 31.5843 39.7513 34.3436 38.7022C37.8903 37.3555 41.4913 36.3499 45.4139 37.6648C45.249 37.7437 45.0778 37.809 44.902 37.8601C44.0315 37.9984 43.1982 38.311 42.4527 38.779C41.7071 39.247 41.0647 39.8607 40.5645 40.5828C39.7818 41.6778 38.8136 42.4858 37.4789 42.821ZM40.9404 45.3944C40.6981 45.3944 40.4521 45.4097 40.2098 45.3944C39.9462 45.378 39.5927 45.5203 39.4354 45.2768C39.2404 44.9769 39.6482 44.8346 39.7724 44.617C40.0525 44.1143 40.2712 43.5801 40.4238 43.0257C40.5952 42.4235 40.7134 41.8213 41.1213 41.2897C42.2042 39.8783 43.5578 38.9633 45.3501 38.7445C46.076 38.6551 46.8421 38.6116 47.3351 39.2338C47.8588 39.8913 47.8954 41.7813 47.4533 42.2612C45.7048 44.1607 43.6229 45.4038 40.9404 45.3944ZM42.7315 50.5953C44.7637 49.4839 46.4307 48.1631 47.4769 46.2083C48.5232 44.2536 48.9819 42.1624 48.5918 39.7783C49.6002 40.397 50.0885 41.1321 50.079 42.1542C50.0494 45.959 48.5681 49.3063 46.751 52.5524C46.53 52.9488 46.2403 52.7806 45.9814 52.623C44.934 51.9749 43.8901 51.3175 42.7315 50.5953ZM49.6948 58.7389C49.2219 58.3543 48.7194 58.0203 48.23 57.6628C45.9436 56.0021 45.8987 55.8656 47.341 53.4122C49.2987 50.0719 50.7801 46.5776 51.0472 42.5129C51.7696 43.5373 51.8748 44.5982 51.8937 45.6261C51.9197 47.5562 51.9895 49.4862 51.7601 51.4222C51.4776 53.8227 50.9527 56.1679 50.4455 58.5202C50.3308 59.0589 50.0908 59.0659 49.6948 58.7389ZM54.3054 61.9145C53.1149 61.2959 52.2377 60.5032 51.2659 59.8657C50.9739 59.6728 51.1477 59.4258 51.2057 59.2141C52.2848 55.2986 52.9142 51.274 53.0818 47.2174C54.776 51.9879 54.1908 56.9042 54.3078 61.9204L54.3054 61.9145ZM54.2889 47.1481C54.2428 47.1657 54.199 47.1822 54.1553 47.201C54.0111 46.7823 53.868 46.3636 53.7226 45.9472C53.1823 44.3994 52.512 42.9186 51.5556 41.572C49.5754 38.7904 47.1223 36.7498 43.5898 36.2123C41.7703 35.9382 39.9332 35.6795 38.239 34.8609C35.6689 33.6165 33.4794 31.8994 31.5595 29.7964C29.8513 27.9132 28.4726 25.7585 27.4808 23.4217C27.0206 22.3094 26.8186 21.1082 26.8897 19.9074C27.2904 19.8733 27.5293 20.0874 27.8 20.2097C31.0641 21.6904 33.8648 23.8545 36.5307 26.2068C40.0242 29.2742 43.9965 30.4409 48.5788 29.4259C48.9228 29.3495 49.255 29.3707 49.5411 29.5765C50.2008 30.0552 50.8522 30.535 51.3712 31.1901C53.3585 33.693 54.0761 36.6404 54.2605 39.7113C54.4107 42.1836 54.2913 44.6723 54.2913 47.1539L54.2889 47.1481ZM55.0609 36.3769C55.0183 36.3775 54.9759 36.3826 54.9344 36.3922C54.6329 36.3087 54.6873 36.1323 54.653 35.9982C54.0335 33.6306 53.1161 31.436 51.2695 29.7035C50.5188 28.9978 49.6144 28.6062 48.7762 28.0792C48.6272 27.9863 48.0586 27.7864 48.5397 27.5512C50.0613 26.8255 50.8132 25.5129 51.461 24.0898C51.623 23.7369 51.837 23.7804 52.1136 23.9333C53.083 24.4685 54.0524 24.7143 55.0231 24.679V24.6625C56.028 24.6782 57.0181 24.4203 57.8864 23.9169C58.163 23.7663 58.377 23.7158 58.539 24.0733C59.1868 25.4941 59.9399 26.8067 61.4543 27.537C61.9402 27.7723 61.3716 27.9722 61.2179 28.0651C60.3785 28.592 59.4753 28.986 58.7234 29.6894C56.8709 31.4218 55.9582 33.6177 55.3411 35.9853C55.3103 36.1241 55.3671 36.2981 55.0632 36.3828L55.0609 36.3769ZM55.7359 39.6948C55.9227 36.6239 56.638 33.6777 58.6253 31.1737C59.1466 30.5186 59.7957 30.0387 60.4577 29.5624C60.5969 29.4684 60.7552 29.406 60.9213 29.3798C61.0874 29.3536 61.2573 29.3641 61.4189 29.4106C66 30.4256 69.9723 29.2577 73.4657 26.1857C76.1305 23.844 78.9323 21.674 82.2012 20.1932C82.4707 20.0756 82.7119 19.8568 83.1127 19.8933C83.1802 21.094 82.9762 22.2945 82.5157 23.4064C81.5248 25.7457 80.1452 27.9023 78.4346 29.7858C76.5147 31.8888 74.3276 33.6059 71.7562 34.8503C70.0609 35.6736 68.2238 35.9276 66.4043 36.2017C62.8718 36.7368 60.4187 38.7798 58.4385 41.5637C57.4821 42.9081 56.8118 44.3865 56.2715 45.9366C56.1261 46.353 55.9854 46.7717 55.84 47.1904L55.7064 47.1386C55.7099 44.6558 55.5893 42.1694 55.7359 39.6948ZM58.7293 59.8575C57.7564 60.4996 56.8803 61.2877 55.6898 61.9063C55.808 56.8924 55.2169 51.9726 56.9122 47.2045C57.0815 51.261 57.7113 55.2855 58.7896 59.2012C58.8523 59.4176 59.0261 59.6622 58.7329 59.8575H58.7293ZM61.7653 57.6487C61.2758 58.0015 60.7687 58.3402 60.3029 58.7237C59.9056 59.0494 59.6645 59.0424 59.5498 58.5061C59.0426 56.1538 58.5177 53.8015 58.2352 51.4069C58.0058 49.4698 58.0756 47.5409 58.1027 45.6097C58.1158 44.5817 58.221 43.5208 58.948 42.4964C59.2152 46.5612 60.6965 50.0567 62.6567 53.3957C64.1013 55.8515 64.0576 55.988 61.7653 57.6487ZM67.2626 50.5812C66.1064 51.301 65.0625 51.9597 64.0115 52.6042C63.7514 52.7641 63.4606 52.9312 63.2395 52.5336C61.4272 49.291 59.9482 45.9472 59.9151 42.1377C59.9056 41.118 60.3963 40.3805 61.4023 39.7619C61.0146 42.1471 61.4697 44.2312 62.5195 46.1918C63.5693 48.1525 65.2351 49.4674 67.2673 50.5812H67.2626ZM70.5646 45.2603C70.4073 45.4956 70.0562 45.3568 69.7902 45.378C69.5538 45.3944 69.3043 45.378 69.0596 45.378C66.3771 45.385 64.2952 44.1442 62.5455 42.2412C62.1046 41.7613 62.1412 39.8713 62.6638 39.2138C63.1567 38.594 63.9228 38.6363 64.6487 38.7245C66.441 38.9433 67.7946 39.8619 68.8775 41.272C69.2854 41.8013 69.4036 42.4047 69.575 43.0069C69.728 43.5615 69.9466 44.0961 70.2264 44.5994C70.3541 44.8193 70.7596 44.9616 70.5646 45.2603ZM83.8658 43.1739C79.9644 43.3903 76.2274 43.7302 72.5164 42.8034C71.1817 42.4705 70.2158 41.6602 69.4273 40.5687C68.3633 39.0844 66.9127 38.1588 65.0885 37.8459C64.9131 37.7952 64.7422 37.7299 64.5778 37.6507C68.4992 36.3322 72.1026 37.3414 75.6469 38.6892C78.4062 39.7372 80.9669 41.1932 83.4709 42.7516C83.5915 42.8222 83.666 42.9551 83.8658 43.175V43.1739ZM82.1409 40.6287C81.5793 40.5522 81.1431 40.2053 80.656 39.963C79.0612 39.1644 77.4877 38.3258 75.6907 37.6872C80.2127 36.8556 87.494 38.4046 89.9956 40.711C87.3108 41.205 84.7252 40.9827 82.1409 40.6299V40.6287ZM95.5 37.7236C93.7007 38.4963 91.7843 38.7751 89.8585 38.995C89.4634 39.0493 89.0613 38.9755 88.7117 38.7845C87.6678 38.1964 86.495 37.9059 85.4109 37.3308C90.0795 37.0391 94.6039 35.863 99.25 35.4137C98.1506 36.4828 96.8466 37.145 95.4977 37.7248L95.5 37.7236ZM106.14 26.3668C106.404 26.3386 106.658 26.2492 107.02 26.3444C105.581 27.9852 104.182 29.5694 102.585 30.9549C101.717 31.7053 100.786 32.3863 99.8979 33.1155C98.199 34.5069 96.1148 34.8127 94.0565 35.182C90.8645 35.7536 87.6572 36.2099 84.4297 36.4216C80.4243 36.6827 76.4047 36.7157 72.3899 36.6227C71.982 36.6145 71.5754 36.4628 70.9831 36.3369C72.5755 35.2784 74.2567 35.0844 75.8586 34.6786C78.223 34.0776 80.4752 33.1884 82.7072 32.2275C84.2441 31.5653 85.9181 31.3513 87.5247 30.9185C92.0964 29.6882 96.6409 28.3674 101.12 26.829C101.657 26.6509 102.223 26.5736 102.788 26.6008C103.9 26.6279 105.019 26.4785 106.134 26.368L106.14 26.3668ZM105.113 22.6866C103.909 24.3944 102.344 25.6152 100.266 26.148C99.269 26.4044 98.3137 26.8137 97.3277 27.116C94.0873 28.1075 90.8409 29.0754 87.5011 29.807C88.5426 29.1389 89.5925 28.4827 90.6293 27.8076C95.5249 24.6073 99.9192 20.8142 103.933 16.5836C104.384 16.1049 104.849 15.8168 105.519 15.9132C106.015 15.9861 106.479 15.7885 106.947 15.678C107.416 15.5674 107.871 15.384 108.509 15.1711C107.76 17.9738 106.69 20.4437 105.107 22.6878L105.113 22.6866Z" fill="#AC3B61"/>
</svg>
