<svg width="19" height="22" viewBox="0 0 19 22" fill="none" xmlns="http://www.w3.org/2000/svg">
<path d="M6.4044 20.1583V16.875C6.4044 16.0369 7.01966 15.3574 7.77863 15.3574H10.553C10.9175 15.3574 11.267 15.5173 11.5247 15.8019C11.7824 16.0865 11.9272 16.4725 11.9272 16.875V20.1583C11.9249 20.5067 12.0487 20.8418 12.271 21.0891C12.4933 21.3364 12.7958 21.4754 13.1113 21.4754H15.0041C15.8881 21.478 16.7367 21.0919 17.3626 20.4025C17.9885 19.7131 18.3403 18.777 18.3403 17.8008V8.44721C18.3402 7.65863 18.0237 6.91063 17.476 6.40469L11.037 0.725729C9.91693 -0.269987 8.31211 -0.237838 7.22548 0.802085L0.933435 6.40469C0.359798 6.89571 0.0169428 7.64594 0 8.44721V17.7913C0 19.826 1.49365 21.4754 3.33617 21.4754H5.18575C5.84111 21.4754 6.37372 20.8915 6.37847 20.1678L6.4044 20.1583Z" fill="#AC3B61"/>
</svg>
