<svg width="20" height="18" viewBox="0 0 20 18" fill="none" xmlns="http://www.w3.org/2000/svg">
<path fill-rule="evenodd" clip-rule="evenodd" d="M11.7881 4.74921C11.7881 7.38564 9.69988 9.49842 7.09402 9.49842C4.48912 9.49842 2.3999 7.38564 2.3999 4.74921C2.3999 2.11278 4.48912 0 7.09402 0C9.69988 0 11.7881 2.11278 11.7881 4.74921ZM0 14.876C0 12.4355 3.26796 11.8249 7.09412 11.8249C10.9411 11.8249 14.1882 12.4565 14.1882 14.899C14.1882 17.3395 10.9203 17.9501 7.09412 17.9501C3.24718 17.9501 0 17.3185 0 14.876ZM13.6811 4.83614C13.6811 6.17873 13.2826 7.43149 12.5836 8.47211C12.5109 8.57913 12.5751 8.72343 12.7017 8.74636C12.8774 8.77598 13.0578 8.79414 13.2419 8.79796C15.0743 8.8467 16.7186 7.65318 17.173 5.85574C17.8464 3.18873 15.8705 0.794056 13.3534 0.794056C13.0804 0.794056 12.8188 0.822723 12.5638 0.87528C12.5288 0.882924 12.4911 0.900125 12.4722 0.930703C12.4476 0.969882 12.4656 1.02053 12.4901 1.05397C13.2467 2.12708 13.6811 3.43336 13.6811 4.83614ZM16.7158 10.6727C17.9474 10.9163 18.7568 11.4123 19.0921 12.1357C19.3764 12.7281 19.3764 13.4161 19.0921 14.0086C18.5792 15.1285 16.9245 15.4888 16.2813 15.5815C16.1481 15.6006 16.0414 15.4859 16.0556 15.3502C16.3842 12.2465 13.7709 10.7749 13.0946 10.4366C13.0663 10.4204 13.0597 10.3975 13.0625 10.3822C13.0644 10.3726 13.0767 10.3573 13.0984 10.3545C14.5614 10.3258 16.1349 10.5293 16.7158 10.6727Z" fill="#F6E9E3"/>
</svg>
