<svg width="23" height="22" viewBox="0 0 23 22" fill="none" xmlns="http://www.w3.org/2000/svg">
<path d="M11.4092 1.98198C14.3463 1.98198 14.6943 1.9932 15.8542 2.04612C16.9267 2.09503 17.5091 2.27423 17.8967 2.42487C18.4102 2.62441 18.7766 2.86278 19.1615 3.24768C19.5465 3.63263 19.7848 3.99906 19.9844 4.51251C20.135 4.90013 20.3142 5.48257 20.3631 6.55506C20.416 7.71496 20.4273 8.06288 20.4273 11C20.4273 13.9371 20.416 14.285 20.3631 15.4449C20.3142 16.5174 20.135 17.0999 19.9844 17.4875C19.7848 18.0009 19.5465 18.3674 19.1616 18.7523C18.7766 19.1372 18.4102 19.3756 17.8967 19.5751C17.5091 19.7258 16.9267 19.905 15.8542 19.9539C14.6944 20.0068 14.3466 20.018 11.4092 20.018C8.47187 20.018 8.12404 20.0068 6.96426 19.9539C5.89177 19.905 5.30932 19.7258 4.92171 19.5751C4.40826 19.3756 4.04182 19.1372 3.65692 18.7523C3.27201 18.3674 3.0336 18.0009 2.83406 17.4875C2.68341 17.0999 2.50421 16.5174 2.45531 15.4449C2.40239 14.285 2.39116 13.9371 2.39116 11C2.39116 8.06288 2.40239 7.71496 2.45531 6.55506C2.50421 5.48257 2.68341 4.90013 2.83406 4.51251C3.0336 3.99906 3.27197 3.63263 3.65692 3.24773C4.04182 2.86278 4.40826 2.62441 4.92171 2.42487C5.30932 2.27423 5.89177 2.09503 6.96426 2.04612C8.12417 1.9932 8.47209 1.98198 11.4092 1.98198ZM11.4092 0C8.42179 0 8.04719 0.0126627 6.87392 0.0661955C5.70309 0.119597 4.90346 0.305565 4.20377 0.577464C3.48042 0.858576 2.86698 1.2347 2.25541 1.84623C1.64389 2.45779 1.26776 3.07123 0.986689 3.79458C0.714745 4.49426 0.528777 5.29389 0.475375 6.46471C0.421842 7.63798 0.40918 8.01258 0.40918 11C0.40918 13.9874 0.421842 14.362 0.475375 15.5353C0.528777 16.7061 0.714745 17.5057 0.986689 18.2054C1.26776 18.9288 1.64389 19.5422 2.25541 20.1538C2.86698 20.7653 3.48042 21.1414 4.20377 21.4225C4.90346 21.6944 5.70309 21.8804 6.87392 21.9338C8.04719 21.9873 8.42179 22 11.4092 22C14.3966 22 14.7712 21.9873 15.9445 21.9338C17.1153 21.8804 17.915 21.6944 18.6147 21.4225C19.338 21.1414 19.9515 20.7653 20.563 20.1538C21.1745 19.5422 21.5507 18.9288 21.8318 18.2054C22.1037 17.5057 22.2897 16.7061 22.3431 15.5353C22.3966 14.362 22.4093 13.9874 22.4093 11C22.4093 8.01258 22.3966 7.63798 22.3431 6.46471C22.2897 5.29389 22.1037 4.49426 21.8318 3.79458C21.5507 3.07123 21.1745 2.45779 20.563 1.84623C19.9515 1.2347 19.338 0.858576 18.6147 0.577464C17.915 0.305565 17.1153 0.119597 15.9445 0.0661955C14.7712 0.0126627 14.3966 0 11.4092 0Z" fill="#F6E9E3"/>
<path d="M11.4143 5.35645C8.2946 5.35645 5.76562 7.88541 5.76562 11.0051C5.76562 14.1248 8.2946 16.6537 11.4143 16.6537C14.534 16.6537 17.063 14.1248 17.063 11.0051C17.063 7.88541 14.534 5.35645 11.4143 5.35645ZM11.4143 14.6718C9.38923 14.6718 7.74761 13.0301 7.74761 11.0051C7.74761 8.98004 9.38923 7.33842 11.4143 7.33842C13.4394 7.33842 15.081 8.98004 15.081 11.0051C15.081 13.0301 13.4394 14.6718 11.4143 14.6718Z" fill="#F6E9E3"/>
<path d="M18.6058 5.13009C18.6058 5.85907 18.0148 6.45007 17.2858 6.45007C16.5568 6.45007 15.9658 5.85907 15.9658 5.13009C15.9658 4.40106 16.5568 3.81006 17.2858 3.81006C18.0148 3.81006 18.6058 4.40106 18.6058 5.13009Z" fill="#F6E9E3"/>
</svg>
