<svg width="22" height="22" viewBox="0 0 22 22" fill="none" xmlns="http://www.w3.org/2000/svg">
<path fill-rule="evenodd" clip-rule="evenodd" d="M4.70457 3.0338C4.70457 4.25435 3.77522 5.24212 2.32188 5.24212C0.925162 5.24212 -0.00418629 4.25435 0.024575 3.0338C-0.00418629 1.75392 0.92514 0.794922 2.34972 0.794922C3.7752 0.794922 4.67671 1.75392 4.70457 3.0338ZM0.141422 21.2037V6.98666H4.55986V21.2028H0.141422V21.2037Z" fill="#F6E9E3"/>
<path fill-rule="evenodd" clip-rule="evenodd" d="M8.10122 11.5238C8.10122 9.75048 8.0428 8.23871 7.98438 6.9885H11.8222L12.0262 8.93618H12.1134C12.6949 8.03469 14.1483 6.66943 16.5031 6.66943C19.4098 6.66943 21.5903 8.58834 21.5903 12.7731V21.2055H17.1718V13.3267C17.1718 11.4941 16.5328 10.2448 14.9338 10.2448C13.7124 10.2448 12.9861 11.0879 12.6958 11.9013C12.579 12.1925 12.5215 12.5987 12.5215 13.0068V21.2055H8.103V11.5238H8.10122Z" fill="#F6E9E3"/>
</svg>
