<svg width="22" height="20" viewBox="0 0 22 20" fill="none" xmlns="http://www.w3.org/2000/svg">
<path d="M0.409668 13.8491C1.94323 16.4183 4.36569 18.3954 7.25266 19.3566C7.88296 19.4718 8.11266 19.0828 8.11266 18.7487C8.11266 18.6104 8.11033 18.366 8.10722 18.0389C8.10362 17.6601 8.09896 17.1705 8.09564 16.6064C4.59149 17.3674 3.85214 14.9174 3.85214 14.9174C3.27907 13.4627 2.45311 13.0752 2.45311 13.0752C1.30929 12.2933 2.53973 12.3088 2.53973 12.3088C3.80419 12.3985 4.4693 13.6073 4.4693 13.6073C5.59301 15.5322 7.41817 14.9762 8.13586 14.6544C8.25031 13.8401 8.57513 13.2848 8.93552 12.97C6.13823 12.6522 3.1971 11.571 3.1971 6.74362C3.1971 5.36856 3.68819 4.24408 4.49404 3.3632C4.36412 3.04457 3.9318 1.76387 4.61701 0.0291927C4.61701 0.0291927 5.67498 -0.309545 8.08172 1.32073C9.08633 1.04154 10.1644 0.901558 11.2355 0.896918C12.3051 0.901558 13.3832 1.04154 14.3893 1.32073C16.7945 -0.309545 17.8502 0.0291927 17.8502 0.0291927C18.5377 1.76387 18.1054 3.04457 17.9755 3.3632C18.7829 4.24408 19.2709 5.36856 19.2709 6.74362C19.2709 11.5834 16.3251 12.6483 13.5185 12.96C13.971 13.349 14.3739 14.1177 14.3739 15.2933C14.3739 16.4192 14.367 17.3999 14.3624 18.0496C14.3601 18.3713 14.3584 18.6119 14.3584 18.7487C14.3584 19.0859 14.585 19.478 15.2246 19.355C17.5244 18.5873 19.5292 17.1752 21.024 15.3327C18.7143 18.1801 15.1873 20 11.2351 20C6.63355 20 2.60819 17.5328 0.409668 13.8491Z" fill="#F6E9E3"/>
</svg>
