<svg width="25" height="20" viewBox="0 0 25 20" fill="none" xmlns="http://www.w3.org/2000/svg">
<path fill-rule="evenodd" clip-rule="evenodd" d="M24.4097 2.55669C23.5273 2.94867 22.5778 3.21265 21.5819 3.33184C22.5986 2.72228 23.3793 1.75754 23.7465 0.60802C22.7962 1.17278 21.741 1.58156 20.6203 1.80314C19.722 0.846407 18.4413 0.248047 17.0262 0.248047C14.3071 0.248047 12.1025 2.4527 12.1025 5.17172C12.1025 5.55729 12.1465 5.93327 12.2305 6.29404C8.13795 6.08926 4.51019 4.12859 2.08156 1.14959C1.65759 1.87674 1.4152 2.72229 1.4152 3.62463C1.4152 5.33251 2.28314 6.83961 3.60545 7.72276C2.79751 7.69716 2.03916 7.47557 1.3744 7.10679V7.16839C1.3744 9.55463 3.07269 11.5441 5.32374 11.9977C4.91097 12.1097 4.4758 12.1705 4.02703 12.1705C3.70945 12.1705 3.40067 12.1393 3.09989 12.0817C3.72625 14.0375 5.54533 15.4614 7.69958 15.5014C6.01489 16.8213 3.89183 17.6093 1.58479 17.6093C1.18641 17.6093 0.794442 17.5861 0.409668 17.5397C2.58872 18.9364 5.17655 19.7523 7.95716 19.7523C17.0134 19.7523 21.9658 12.2496 21.9658 5.74368C21.9658 5.53009 21.9618 5.31731 21.9514 5.10693C22.9146 4.41097 23.7497 3.54383 24.4097 2.55669Z" fill="#F6E9E3"/>
</svg>
