<svg width="73" height="73" viewBox="0 0 73 73" fill="none" xmlns="http://www.w3.org/2000/svg">
<g clip-path="url(#clip0)">
<path fill-rule="evenodd" clip-rule="evenodd" d="M6.56651 50.6604L16.148 58.5897L24.9762 50.6604C26.0542 49.3367 27.0199 47.676 27.3736 45.6739C28.9845 36.5416 32.2559 34.3938 29.4298 33.3074C26.7493 32.2792 23.5276 34.8434 23.5276 38.6435V19.8671C23.5276 18.3978 22.3247 17.1949 20.8554 17.1949C19.3861 17.1949 18.1832 18.3978 18.1832 19.8671V16.4914C18.1832 15.0179 16.9803 13.8149 15.511 13.8149C14.0417 13.8149 12.8388 15.0179 12.8388 16.4914V18.4519C12.8388 16.9826 11.6359 15.7797 10.1666 15.7797C8.6932 15.7797 7.49027 16.9826 7.49027 18.4519V24.583C7.49027 23.3551 6.49137 22.352 5.26348 22.352C4.03974 22.352 2.93262 23.3551 2.93262 24.583L2.93675 35.2305C2.97454 40.9912 3.16174 47.0433 6.56651 50.6604Z" fill="#F7B594"/>
<path fill-rule="evenodd" clip-rule="evenodd" d="M7.49049 24.5831C7.49049 23.3552 6.49158 22.3521 5.2637 22.3521C5.2262 22.3521 5.18885 22.3562 5.14722 22.3562V31.5301C5.14722 33.0702 7.49063 33.0702 7.49063 31.5301V31.3677V24.5831H7.49049Z" fill="#E5966E"/>
<path fill-rule="evenodd" clip-rule="evenodd" d="M12.839 30.681V18.4519C12.839 17.095 11.8109 15.9628 10.4956 15.8005V30.6811C10.4956 31.3263 11.02 31.8507 11.6652 31.8507C12.3103 31.8507 12.839 31.3262 12.839 30.681Z" fill="#E5966E"/>
<path fill-rule="evenodd" clip-rule="evenodd" d="M18.1835 30.0108V19.867V16.4914V16.4747C18.1752 15.1219 17.1512 13.9981 15.8401 13.8357V30.0108C15.8401 30.6559 16.3688 31.1846 17.0138 31.1846C17.6548 31.1846 18.1835 30.6559 18.1835 30.0108Z" fill="#E5966E"/>
<path fill-rule="evenodd" clip-rule="evenodd" d="M29.43 33.3073C28.5684 32.9744 27.6528 33.0159 26.8036 33.3489C29.4383 34.4478 26.2291 36.6622 24.6392 45.6738C24.1522 48.4251 22.5122 50.5397 21.0056 52.0048H23.7403C25.247 50.5397 26.887 48.4251 27.3739 45.6738C28.9846 36.5415 32.2562 34.3937 29.43 33.3073Z" fill="#E5966E"/>
<path fill-rule="evenodd" clip-rule="evenodd" d="M43.2694 40.2836L54.3494 45.3408L63.3981 40.2836C64.5761 38.8351 65.6333 37.0161 66.0161 34.8308C67.781 24.8452 71.3564 22.4936 68.2679 21.3073C65.3376 20.1835 61.8164 22.9889 61.8164 27.143V6.61406C61.8164 5.00734 60.5011 3.69206 58.8945 3.69206C57.2879 3.69206 55.9726 5.00734 55.9726 6.61406V2.922C55.9726 1.31528 54.6574 0 53.0506 0C51.4398 0 50.1245 1.31528 50.1245 2.922V5.06566C50.1245 3.45895 48.8092 2.14366 47.2027 2.14366C45.5961 2.14366 44.2808 3.45895 44.2808 5.06566V11.7671C44.2808 10.431 43.1861 9.33217 41.8459 9.33217C40.5056 9.33217 39.2944 10.431 39.2944 11.7671L39.3027 23.4093C39.3402 29.7111 39.5482 36.3293 43.2694 40.2836Z" fill="#FFCDBE"/>
<path fill-rule="evenodd" clip-rule="evenodd" d="M44.281 11.7672C44.281 10.4311 43.1863 9.33228 41.8461 9.33228C41.8045 9.33228 41.7628 9.33641 41.7212 9.33641V19.3678C41.7212 21.0493 44.281 21.0493 44.281 19.3678V19.1888V11.7672Z" fill="#F7C1B3"/>
<path fill-rule="evenodd" clip-rule="evenodd" d="M50.1248 18.4353V5.06573C50.1248 3.57978 49.0051 2.34349 47.5649 2.16455V18.4353C47.5649 19.1429 48.1394 19.7173 48.8469 19.7173C49.5503 19.7173 50.1248 19.1429 50.1248 18.4353Z" fill="#F7C1B3"/>
<path fill-rule="evenodd" clip-rule="evenodd" d="M55.9729 17.7067V6.61399V2.92193V2.90525C55.9646 1.42757 54.845 0.199688 53.4089 0.020752V17.7067C53.4089 18.4102 53.9875 18.9888 54.6909 18.9888C55.3943 18.9888 55.9729 18.4102 55.9729 17.7067Z" fill="#F7C1B3"/>
<path fill-rule="evenodd" clip-rule="evenodd" d="M68.268 21.3073C67.3273 20.9493 66.3242 20.9909 65.3961 21.3572C68.2764 22.556 64.7676 24.9743 63.0277 34.8309C62.499 37.8361 60.7051 40.1504 59.0569 41.7529H62.0496C63.6937 40.1503 65.4876 37.8361 66.0163 34.8309C67.781 24.8452 71.3564 22.4936 68.268 21.3073Z" fill="#F7C1B3"/>
<path fill-rule="evenodd" clip-rule="evenodd" d="M4.502 50.6604H26.1542C26.5496 50.6604 26.8701 50.9851 26.8701 51.3806V72.2591C26.8701 72.6545 26.5496 72.9793 26.1542 72.9793H4.502C4.10663 72.9793 3.78198 72.6547 3.78198 72.2591V51.3806C3.78198 50.9851 4.10663 50.6604 4.502 50.6604Z" fill="#63A1FC"/>
<path fill-rule="evenodd" clip-rule="evenodd" d="M21.4177 72.9792H26.1544C26.5498 72.9792 26.8703 72.6545 26.8703 72.259V51.3806C26.8703 50.9852 26.5498 50.6604 26.1544 50.6604H24.9764H22.2502H22.2419H21.4094C21.6467 50.6604 21.859 50.7812 21.9921 50.9601C22.0754 51.0809 22.1253 51.2264 22.1253 51.3806V52.0049V72.2591C22.1252 72.6504 21.8089 72.975 21.4177 72.9792Z" fill="#4188FF"/>
<path fill-rule="evenodd" clip-rule="evenodd" d="M41.0385 40.2837H64.6594C65.1048 40.2837 65.4711 40.65 65.4711 41.0995V72.1843C65.4711 72.6338 65.1048 73.0001 64.6594 73.0001H41.0385C40.589 73.0001 40.2268 72.6338 40.2268 72.1843V41.0995C40.2269 40.65 40.589 40.2837 41.0385 40.2837Z" fill="#FEC13B"/>
<path fill-rule="evenodd" clip-rule="evenodd" d="M58.1954 73.0001H64.6594C65.1049 73.0001 65.4711 72.6338 65.4711 72.1843V41.0995C65.4711 40.65 65.1049 40.2837 64.6594 40.2837H63.3983H60.4182H60.4099H58.1831C58.6327 40.2837 58.9989 40.65 58.9989 41.0995V72.1843C58.9987 72.6297 58.6365 72.9918 58.1954 73.0001Z" fill="#FCB237"/>
<path d="M61.8166 26.0422V6.61407C61.8166 5.12812 60.6928 3.89183 59.2526 3.71289V27.143C59.2526 27.2142 59.26 27.2836 59.2713 27.3518C57.3188 28.7174 55.717 30.5294 55.2479 32.0278C55.0674 32.6045 55.3486 33.244 55.9192 33.4434C56.0408 33.4859 56.1642 33.5062 56.2854 33.5062C56.7624 33.5062 57.2021 33.1939 57.3424 32.713C57.6456 31.674 59.6653 29.3721 61.5999 28.2708C61.7353 28.1937 61.8165 28.0473 61.8165 27.8914V26.0422H61.8166Z" fill="#F7C1B3"/>
<path d="M23.5277 37.543V19.8672C23.5277 18.5103 22.5038 17.3781 21.1843 17.2158V38.423C21.1843 38.5603 21.12 38.6885 21.0115 38.7725C19.8917 39.6384 17.8036 41.8097 17.4131 43.1467C17.2426 43.7306 17.5778 44.3423 18.1618 44.5128C18.2649 44.5429 18.3688 44.5573 18.471 44.5573C18.9479 44.5573 19.3875 44.2451 19.528 43.7642C19.7991 42.8354 21.032 41.0746 23.2805 39.9348C23.4306 39.8587 23.5276 39.7074 23.5276 39.539V37.543H23.5277Z" fill="#E5966E"/>
</g>
<defs>
<clipPath id="clip0">
<rect width="73" height="73" fill="white"/>
</clipPath>
</defs>
</svg>
