<svg width="83" height="83" viewBox="0 0 83 83" fill="none" xmlns="http://www.w3.org/2000/svg">
<path d="M28.4716 26.4573C24.8552 17.2038 18.0922 19.7418 18.0922 19.7418C18.0922 19.7418 11.3292 17.2038 7.71278 26.4573C5.5319 32.0381 6.65717 36.7152 7.76913 41.6988C7.9895 42.6879 8.86717 43.3908 9.88036 43.3908H26.3041C27.3172 43.3908 28.1949 42.6879 28.4153 41.6988C29.5273 36.7152 30.6525 32.0381 28.4716 26.4573Z" fill="#495766"/>
<path d="M12.5824 41.6988C11.4704 36.7152 10.3452 32.0381 12.526 26.4573C14.7614 20.7366 18.1992 19.5234 20.4985 19.4303C19.0788 19.3726 18.0922 19.7418 18.0922 19.7418C18.0922 19.7418 11.3292 17.2038 7.71278 26.4573C5.5319 32.0381 6.65717 36.7152 7.76913 41.6988C7.9895 42.6879 8.86717 43.3908 9.88036 43.3908H14.6936C13.6804 43.3908 12.8028 42.6873 12.5824 41.6988Z" fill="#3C4957"/>
<path d="M32.703 49.9631L27.5592 47.9709C26.4713 49.1697 25.3277 50.4191 24.2259 51.6171C20.9748 55.1525 15.3953 55.1532 12.1449 51.6178C11.0602 50.438 9.93553 49.2089 8.86282 48.0279L3.87099 49.9625C3.87099 49.9625 0 51.5545 0 55.9669V72.5609C0 73.847 1.04295 74.89 2.32906 74.89H34.245C35.5311 74.89 36.574 73.847 36.574 72.5609V55.9669C36.574 51.5545 32.703 49.9631 32.703 49.9631Z" fill="#FEC13B"/>
<path d="M4.78729 72.5617V53.6278C4.78729 51.2646 5.89736 49.7112 6.92828 48.7778L3.87099 49.9633C3.87099 49.9633 0 51.5546 0 55.967V72.5617C0 73.8478 1.04295 74.8901 2.32906 74.8901H7.11572C5.82961 74.8901 4.78729 73.8478 4.78729 72.5617Z" fill="#FCB237"/>
<path d="M24.6248 46.8342C23.7959 47.7518 22.8878 48.7453 22.0216 49.6876C19.9635 51.9255 16.432 51.9255 14.3739 49.6876C13.5229 48.7618 12.6319 47.7873 11.815 46.883L8.78687 48.057C9.88174 49.264 11.0349 50.5235 12.1449 51.7304C15.3954 55.2658 20.9748 55.2658 24.2259 51.7304C25.3531 50.5045 26.5245 49.2241 27.6352 48.0007L24.6248 46.8342Z" fill="#FCB237"/>
<path d="M22.2375 45.3488V42.5873C21.1363 43.3288 19.8116 43.7619 18.3868 43.7619C16.8138 43.7619 15.4384 43.3155 14.3258 42.574V45.3488C14.3258 45.687 14.1181 45.9903 13.8021 46.1132L11.739 46.9129C12.5762 47.84 13.4969 48.8469 14.3739 49.8005C16.432 52.0384 19.9635 52.0384 22.0216 49.8005C22.9144 48.8298 23.8516 47.8045 24.7008 46.8642L22.7612 46.1125C22.4458 45.9903 22.2375 45.687 22.2375 45.3488Z" fill="#F7C1B3"/>
<path d="M17.0646 47.6576C17.3799 47.5354 17.5876 47.2321 17.5876 46.8933V43.7214C16.3458 43.5979 15.2453 43.187 14.3252 42.574V45.3488C14.3252 45.687 14.1175 45.9903 13.8021 46.1132L11.739 46.9129C12.3444 47.5829 12.9928 48.2947 13.6375 48.9982L17.0646 47.6576Z" fill="#EFB5A8"/>
<path d="M76.6048 37.4655C76.4174 37.3129 76.368 37.0501 76.4706 36.8316C77.1488 35.3885 76.4997 33.6464 75.0033 33.0151C74.8089 32.9334 74.6861 32.7409 74.6861 32.53V29.6779C74.6861 24.1371 70.2534 19.5442 64.7126 19.5037C59.1723 19.5442 54.7397 24.1371 54.7397 29.6779V32.53C54.7397 32.7409 54.6162 32.9334 54.4224 33.0151C52.9273 33.6458 52.2757 35.3872 52.9552 36.8316C53.0578 37.0501 53.0078 37.3129 52.821 37.4655C49.7339 39.9845 51.4886 45.0568 55.523 45.0568H73.9021C77.934 45.0568 79.6944 39.9871 76.6048 37.4655Z" fill="#495766"/>
<path d="M57.8337 37.4655C58.0205 37.3129 58.0705 37.0501 57.9679 36.8316C57.2885 35.3872 57.9394 33.6458 59.4352 33.0151C59.6289 32.9334 59.7524 32.7409 59.7524 32.53V29.6779C59.7524 25.0033 62.9066 21.0044 67.2189 19.8431C66.4192 19.6278 65.5795 19.51 64.7132 19.5037C59.1724 19.5442 54.7397 24.1371 54.7397 29.6779V32.53C54.7397 32.7409 54.6168 32.9334 54.4231 33.0151C52.9273 33.6458 52.2764 35.3872 52.9552 36.8316C53.0578 37.0501 53.0084 37.3129 52.8216 37.4655C49.7345 39.9845 51.4886 45.0568 55.5236 45.0568H60.5357C56.5014 45.0568 54.7466 39.9845 57.8337 37.4655Z" fill="#3C4957"/>
<path d="M79.1289 49.9631L73.9851 47.9709C72.8972 49.1697 71.7542 50.4191 70.6517 51.6171C67.4013 55.1525 61.8218 55.1532 58.5708 51.6178C57.4867 50.438 56.3614 49.2089 55.2893 48.0279L50.2975 49.9625C50.2975 49.9625 46.4265 51.5545 46.4265 55.9669V72.5609C46.4265 73.847 47.4688 74.89 48.7556 74.89H80.6715C81.9576 74.89 82.9999 73.847 82.9999 72.5609V55.9669C82.9999 51.5545 79.1289 49.9631 79.1289 49.9631Z" fill="#FF80BD"/>
<path d="M67.7502 59.9115C67.7502 57.6153 67.1639 55.6833 66.2887 54.0964C63.5664 54.6613 60.6105 53.8355 58.5708 51.6179C57.4867 50.4382 56.3614 49.2091 55.2893 48.0281L50.2975 49.9626C50.2975 49.9626 46.4265 51.5546 46.4265 55.967V72.5611C46.4265 73.8472 47.4688 74.8901 48.7556 74.8901H67.7502V59.9115Z" fill="#F964B2"/>
<path d="M71.0511 46.8342C70.2222 47.7518 69.3141 48.7453 68.4478 49.6876C66.3898 51.9255 62.8582 51.9255 60.8002 49.6876C59.9491 48.7618 59.0582 47.7873 58.2413 46.883L55.2131 48.057C56.308 49.264 57.4611 50.5235 58.5712 51.7304C61.8216 55.2658 67.4011 55.2658 70.6515 51.7304C71.7793 50.5045 72.9508 49.2241 74.0615 48.0007L71.0511 46.8342Z" fill="#F964B2"/>
<path d="M66.3442 54.1963C65.7433 53.0805 64.9998 52.1326 64.2115 51.348C62.9551 51.2486 61.7279 50.6964 60.8002 49.6876C60.4424 49.2982 60.0777 48.9005 59.7142 48.5028L56.8874 47.408L55.2131 48.057C56.308 49.264 57.4611 50.5235 58.5706 51.7305C60.6242 53.9639 63.6061 54.7846 66.3442 54.1963Z" fill="#EF54AC"/>
<path d="M68.664 45.3488V42.5873C67.5628 43.3288 66.2374 43.7619 64.8133 43.7619C63.2403 43.7619 61.8643 43.3155 60.7517 42.574V45.3488C60.7517 45.687 60.544 45.9903 60.2286 46.1132L58.1655 46.9129C59.0027 47.84 59.9234 48.8469 60.8004 49.8005C62.8585 52.0384 66.39 52.0384 68.4481 49.8005C69.3403 48.8298 70.2781 47.8045 71.1267 46.8642L69.1877 46.1125C68.8717 45.9903 68.664 45.687 68.664 45.3488Z" fill="#D88460"/>
<path d="M63.4911 47.6576C63.8064 47.5354 64.0141 47.2321 64.0141 46.8933V43.7214C62.7717 43.5979 61.6718 43.187 60.7517 42.574V45.3488C60.7517 45.687 60.544 45.9903 60.2286 46.1132L58.1655 46.9129C58.7703 47.5829 59.4193 48.2947 60.064 48.9982L63.4911 47.6576Z" fill="#CC785A"/>
<path d="M71.2406 30.1106C70.6618 30.0239 69.4966 29.6762 68.7108 28.3021C68.5702 28.0557 68.2283 28.0184 68.0421 28.2324C67.4209 28.9448 66.0201 30.0846 63.6588 29.6274C63.46 29.5888 63.2624 29.6939 63.1889 29.8826C62.8337 30.7951 61.545 33.2654 57.9634 33.4079C57.7405 33.4168 57.5632 33.5979 57.5632 33.8214V37.1858C57.5632 40.8231 60.4312 44.1445 64.7638 44.1008C68.5575 44.0621 71.5933 40.9282 71.5933 37.1339V30.5159C71.5933 30.3113 71.4419 30.141 71.2406 30.1106Z" fill="#E5966E"/>
<path d="M76.9607 74.89V60.7498C76.9607 60.0576 76.3997 59.4966 75.7075 59.4966C75.0154 59.4966 74.4543 60.0576 74.4543 60.7498V74.89H76.9607Z" fill="#F964B2"/>
<path d="M8.56579 74.89V60.7498C8.56579 60.0576 8.00474 59.4966 7.31261 59.4966C6.62111 59.4966 6.06006 60.0576 6.06006 60.7498V74.89H8.56579Z" fill="#FCB237"/>
<path d="M25.0037 32.1368C23.7872 32.2147 19.5591 30.4625 18.4895 26.7878C18.4655 26.7062 18.392 26.6492 18.3071 26.6492C18.2223 26.6492 18.1488 26.7062 18.1248 26.7878C17.0552 30.4625 12.8271 32.2147 11.6106 32.1368C11.4333 32.1261 11.282 32.259 11.282 32.437V37.1312C11.282 39.3881 12.3857 41.5227 14.2569 42.8107C14.2709 42.8202 14.2842 42.8303 14.2981 42.8398C14.3057 42.8449 14.3139 42.85 14.3222 42.8557C15.4063 43.5991 16.7114 44.0411 18.1216 44.0557C18.1843 44.0563 18.2451 44.0538 18.3071 44.0531C18.3692 44.0538 18.43 44.0563 18.4927 44.0557C19.9029 44.0411 21.208 43.5991 22.2928 42.8557C22.3004 42.85 22.3086 42.8449 22.3162 42.8398C22.3301 42.8303 22.3434 42.8202 22.3573 42.8101C24.2286 41.5227 25.3323 39.3881 25.3323 37.1312V32.437C25.3323 32.259 25.181 32.1261 25.0037 32.1368Z" fill="#FFCDBE"/>
<path d="M19.1354 42.8558C19.1278 42.8508 19.1196 42.8457 19.1114 42.84C19.0981 42.8305 19.0841 42.8204 19.0708 42.8109C17.1996 41.5235 16.0952 39.3882 16.0952 37.1313V32.4371C16.0952 32.2592 16.2472 32.1262 16.4245 32.137C17.1825 32.1857 19.1101 31.5227 20.7141 30.1277C19.744 29.2836 18.8923 28.1723 18.4895 26.7874C18.4655 26.7057 18.3926 26.6487 18.3071 26.6487C18.2223 26.6487 18.1488 26.7057 18.1254 26.7874C17.0559 30.4627 12.8271 32.2149 11.6106 32.137C11.434 32.1256 11.282 32.2592 11.282 32.4365V37.1313C11.282 39.3882 12.3857 41.5229 14.2576 42.8102C14.2709 42.8204 14.2842 42.8299 14.2981 42.84C14.3063 42.8451 14.3146 42.8501 14.3222 42.8558C15.4063 43.5992 16.7114 44.0412 18.1216 44.0558C18.1843 44.0564 18.2451 44.0539 18.3071 44.0533C18.3692 44.0539 18.43 44.0564 18.4927 44.0558C19.2716 44.0476 20.0182 43.9089 20.7141 43.6607C20.1505 43.4606 19.6211 43.1889 19.1354 42.8558Z" fill="#F7C1B3"/>
<path d="M41.5101 15.9177C35.0649 15.9177 29.8401 21.1426 29.8401 27.5877V44.0475C29.8401 44.9017 30.5329 45.5945 31.3877 45.5945H51.633C52.4873 45.5945 53.18 44.9017 53.18 44.0475C53.18 40.6077 53.18 30.8502 53.18 27.5877C53.18 21.1426 47.9552 15.9177 41.5101 15.9177Z" fill="#495766"/>
<path d="M33.851 44.0475C33.851 43.8759 33.851 27.7593 33.851 27.5877C33.851 21.8265 38.0253 17.0405 43.5155 16.09C42.8639 15.9772 42.194 15.9177 41.5101 15.9177C35.0649 15.9177 29.8401 21.1426 29.8401 27.5877V44.0475C29.8401 44.9024 30.5329 45.5951 31.3877 45.5951H35.398C34.5438 45.5945 33.851 44.9017 33.851 44.0475Z" fill="#3C4957"/>
<path d="M58.9033 52.6671L52.6969 50.2639C51.3842 51.7102 50.005 53.2173 48.6752 54.6637C44.7529 58.9285 38.0216 58.9292 34.0993 54.6637C32.791 53.2408 31.434 51.7577 30.1397 50.3323L24.1169 52.6677C24.1169 52.6677 19.4468 54.5877 19.4468 59.9113V79.9325C19.4468 81.4845 20.705 82.7428 22.2571 82.7428H60.7638C62.3158 82.7428 63.5735 81.4845 63.5735 79.9325V59.9113C63.5735 54.587 58.9033 52.6671 58.9033 52.6671Z" fill="#63A1FC"/>
<path d="M24.2341 79.9326V57.7394C24.2341 54.4136 26.0559 52.4164 27.4243 51.3855L24.1169 52.6672C24.1169 52.6672 19.4468 54.5872 19.4468 59.9114V79.9326C19.4468 81.4846 20.705 82.7422 22.2571 82.7422H27.0438C25.4917 82.7422 24.2341 81.4846 24.2341 79.9326Z" fill="#4188FF"/>
<path d="M49.1571 48.8931C48.1572 50 47.0617 51.1981 46.0163 52.3347C43.5333 55.0349 39.2723 55.0349 36.7893 52.3354C35.7622 51.2183 34.687 50.0424 33.701 48.952L30.0479 50.3679C31.3688 51.8237 32.76 53.3441 34.0993 54.7999C38.0216 59.0654 44.7529 59.0654 48.6752 54.7999C50.0354 53.3207 51.4488 51.7762 52.7888 50.2995L49.1571 48.8931Z" fill="#4188FF"/>
<path d="M46.2766 47.0997V43.7689C44.948 44.663 43.3491 45.1855 41.6305 45.1855C39.7333 45.1855 38.0729 44.6472 36.7305 43.7524V47.1004C36.7305 47.5082 36.4797 47.8748 36.0991 48.0224L33.6099 48.9868C34.6205 50.1051 35.7306 51.3203 36.7894 52.4715C39.2723 55.171 43.5334 55.171 46.0163 52.4709C47.0934 51.3 48.2244 50.0627 49.2483 48.9285L46.9085 48.0224C46.528 47.8748 46.2766 47.5082 46.2766 47.0997Z" fill="#F0A479"/>
<path d="M40.0353 49.886C40.4159 49.7385 40.6667 49.3724 40.6667 48.964V45.1373C39.1678 44.9879 37.8405 44.4921 36.7305 43.7524V47.1004C36.7305 47.5088 36.4797 47.8748 36.0991 48.0224L33.6099 48.9874C34.3406 49.7955 35.1227 50.6541 35.9003 51.5027L40.0353 49.886Z" fill="#E5966E"/>
<path d="M49.8396 31.0516V37.2516C49.8396 37.3118 49.8365 37.3713 49.8352 37.4315C52.0477 37.8557 53.8898 36.2663 53.8898 34.2418C53.8898 32.2193 52.0496 30.6311 49.8396 31.0516Z" fill="#F0A479"/>
<path d="M53.1844 32.2247C52.4505 31.3078 51.2169 30.7892 49.8396 31.0513V37.2514C49.8396 37.3116 49.8365 37.3711 49.8352 37.4312C51.2144 37.6959 52.4499 37.1773 53.1844 36.2585V32.2247Z" fill="#E5966E"/>
<path d="M49.4249 29.4735C48.3864 29.1581 46.3511 28.3267 44.39 26.3041C44.0702 25.9742 43.5459 25.9989 43.2533 26.3326C41.8792 27.8999 38.1836 31.7291 33.5521 33.4388C33.2481 33.5509 33.0461 33.8403 33.0461 34.1645V37.2516C33.0461 41.6108 36.4612 45.5951 41.631 45.5951C46.2308 45.5951 49.9739 41.852 49.9739 37.2516V30.2137C49.9733 29.873 49.751 29.5729 49.4249 29.4735Z" fill="#F7B594"/>
<path d="M37.0565 37.2515V31.6841C35.9736 32.3654 34.7971 32.9791 33.5521 33.4388C33.2481 33.5509 33.0461 33.8403 33.0461 34.1645V37.2515C33.0461 41.6108 36.4612 45.5951 41.6303 45.5951C42.2978 45.5951 42.9456 45.514 43.5681 45.3652C39.5793 44.4629 37.0565 40.9971 37.0565 37.2515Z" fill="#F0A479"/>
<path d="M29.4524 82.7422V65.7068C29.4524 65.0507 28.9211 64.5188 28.2651 64.5188C27.6091 64.5188 27.0771 65.0507 27.0771 65.7068V82.7422H29.4524Z" fill="#4188FF"/>
<path d="M55.9429 82.7422V65.7068C55.9429 65.0507 55.411 64.5188 54.755 64.5188C54.0989 64.5188 53.5676 65.0507 53.5676 65.7068V82.7422H55.9429Z" fill="#4188FF"/>
<path d="M62.5753 37.1856V31.0261C61.8477 32.0729 60.466 33.3083 57.9634 33.4077C57.7405 33.4166 57.5632 33.5977 57.5632 33.8212V37.1856C57.5632 40.8223 60.4312 44.1443 64.7632 44.1006C65.5895 44.0918 66.3792 43.9366 67.1099 43.6599C64.3066 42.6448 62.5753 40.0112 62.5753 37.1856Z" fill="#D88460"/>
</svg>
