<svg width="92" height="92" viewBox="0 0 92 92" fill="none" xmlns="http://www.w3.org/2000/svg">
<g clip-path="url(#clip0)">
<path d="M33.0808 19.8918C25.9368 19.8918 20.1454 25.6833 20.1454 32.8272V51.0718C20.1454 52.0187 20.9133 52.7866 21.8608 52.7866H44.3014C45.2483 52.7866 46.0162 52.0187 46.0162 51.0718C46.0162 47.2591 46.0162 36.4435 46.0162 32.8272C46.0162 25.6833 40.2248 19.8918 33.0808 19.8918Z" fill="#495766"/>
<path d="M24.5912 51.0718C24.5912 50.8816 24.5912 33.0175 24.5912 32.8272C24.5912 26.4413 29.2182 21.1363 35.3037 20.0828C34.5815 19.9578 33.8388 19.8918 33.0808 19.8918C25.9368 19.8918 20.1454 25.6833 20.1454 32.8272V51.0718C20.1454 52.0194 20.9133 52.7873 21.8608 52.7873H26.306C25.3591 52.7866 24.5912 52.0187 24.5912 51.0718Z" fill="#3C4957"/>
<path d="M52.36 60.6261L45.4806 57.9624C44.0255 59.5656 42.4968 61.2361 41.0228 62.8392C36.6752 67.5666 29.214 67.5673 24.8664 62.8392C23.4162 61.2621 21.912 59.6182 20.4774 58.0382L13.8015 60.6268C13.8015 60.6268 8.625 62.755 8.625 68.6559V90.848C8.625 92.5684 10.0197 93.9631 11.7401 93.9631H54.4221C56.1425 93.9631 57.5365 92.5684 57.5365 90.848V68.6559C57.5365 62.7543 52.36 60.6261 52.36 60.6261Z" fill="#FF80BD"/>
<path d="M13.9314 90.8479V66.2482C13.9314 62.5618 15.9508 60.348 17.4676 59.2053L13.8015 60.626C13.8015 60.626 8.625 62.7541 8.625 68.6558V90.8479C8.625 92.5682 10.0197 93.9622 11.7401 93.9622H17.0457C15.3254 93.9622 13.9314 92.5682 13.9314 90.8479Z" fill="#F964B2"/>
<path d="M41.557 56.4426C40.4487 57.6696 39.2344 58.9976 38.0755 60.2575C35.3234 63.2504 30.6003 63.2504 27.8481 60.2582C26.7096 59.02 25.5178 57.7166 24.4249 56.5079L20.3756 58.0774C21.8398 59.691 23.3819 61.3763 24.8664 62.99C29.214 67.718 36.6752 67.718 41.0228 62.99C42.5305 61.3503 44.0972 59.6384 45.5824 58.0016L41.557 56.4426Z" fill="#F964B2"/>
<path d="M38.3639 54.4549V50.7629C36.8913 51.754 35.119 52.333 33.2141 52.333C31.1111 52.333 29.2708 51.7364 27.7827 50.7446V54.4556C27.7827 54.9076 27.5048 55.314 27.0829 55.4776L24.3237 56.5466C25.444 57.7861 26.6744 59.1331 27.848 60.4092C30.6002 63.4014 35.3233 63.4014 38.0754 60.4085C39.2694 59.1106 40.523 57.7391 41.658 56.482L39.0644 55.4776C38.6426 55.314 38.3639 54.9076 38.3639 54.4549Z" fill="#F0A479"/>
<path d="M31.446 57.5433C31.8678 57.3797 32.1458 56.974 32.1458 56.5213V52.2797C30.4843 52.114 29.0132 51.5645 27.7827 50.7446V54.4556C27.7827 54.9083 27.5048 55.314 27.0829 55.4776L24.3237 56.5473C25.1337 57.4429 26.0006 58.3947 26.8625 59.3352L31.446 57.5433Z" fill="#E5966E"/>
<path d="M46.0211 37.9673C45.2076 36.9509 43.8403 36.376 42.3136 36.6666V43.539C42.3136 43.6057 42.3101 43.6716 42.3087 43.7383C43.8375 44.0317 45.2069 43.4568 46.0211 42.4384V37.9673Z" fill="#E5966E"/>
<path d="M41.8539 34.9176C40.7027 34.568 38.4468 33.6464 36.273 31.4045C35.9185 31.0388 35.3374 31.0662 35.0131 31.4361C33.49 33.1733 29.3936 37.4178 24.2599 39.3129C23.923 39.4371 23.6991 39.7579 23.6991 40.1173V43.5391C23.6991 48.371 27.4845 52.7873 33.2148 52.7873C38.3134 52.7873 42.4624 48.6384 42.4624 43.5391V35.7381C42.4617 35.3605 42.2153 35.0278 41.8539 34.9176Z" fill="#F7B594"/>
<path d="M19.7157 93.9623V75.0797C19.7157 74.3525 19.1268 73.7629 18.3997 73.7629C17.6725 73.7629 17.0829 74.3525 17.0829 75.0797V93.9623H19.7157Z" fill="#F964B2"/>
<path d="M49.0784 93.9623V75.0797C49.0784 74.3525 48.4888 73.7629 47.7616 73.7629C47.0345 73.7629 46.4456 74.3525 46.4456 75.0797V93.9623H49.0784Z" fill="#F964B2"/>
<path d="M34.8158 91.048H18.5483V86.2222H29.9881C32.6536 86.2222 34.8158 88.3824 34.8158 91.048Z" fill="#8296A0"/>
<path d="M28.6514 91.048H18.5481V86.2222H23.8255C26.4912 86.2222 28.6514 88.3824 28.6514 91.048Z" fill="#687780"/>
<path d="M84.7764 79.2233H43.3148C39.3254 79.2233 36.0912 75.9891 36.0912 71.9997V44.8804C36.0912 40.8909 39.3254 37.6567 43.3148 37.6567H84.7764C88.7659 37.6567 92.0001 40.8909 92.0001 44.8804V71.9997C92.0001 75.9893 88.7659 79.2233 84.7764 79.2233Z" fill="#8296A0"/>
<path d="M48.775 79.224H43.3143C39.3252 79.224 36.0912 75.9902 36.0912 72.001V44.8804C36.0912 40.8913 39.325 37.6575 43.3143 37.6575H48.775C44.7859 37.6575 41.5519 40.8913 41.5519 44.8804V72.001C41.5521 75.99 44.7859 79.224 48.775 79.224Z" fill="#687780"/>
<path d="M67.3948 56.8452H60.6961C58.071 56.8452 55.943 58.9733 55.943 61.5983V88.3752H72.1479V61.5985C72.1481 58.9732 70.0201 56.8452 67.3948 56.8452Z" fill="#8296A0"/>
<path d="M65.543 56.8447C62.9164 56.8447 60.7894 58.9735 60.7894 61.5984V88.3747H55.9432V61.5984C55.9432 58.9735 58.072 56.8447 60.6969 56.8447H65.543Z" fill="#687780"/>
<path d="M76.4614 85.3604H51.6297C50.059 85.3604 48.7858 86.6336 48.7858 88.2043C48.7858 89.7749 50.059 91.0482 51.6297 91.0482H76.4614C78.0321 91.0482 79.3053 89.7749 79.3053 88.2043C79.3052 86.6336 78.0319 85.3604 76.4614 85.3604Z" fill="#8296A0"/>
<path d="M57.7211 90.2144C58.2357 90.729 58.9466 91.0474 59.7314 91.0474H51.6291C50.8443 91.0474 50.1334 90.729 49.6188 90.2144C49.1042 89.6998 48.7858 88.9889 48.7858 88.2041C48.7858 86.6325 50.0594 85.3589 51.629 85.3589H59.7313C58.1615 85.3589 56.8881 86.6325 56.8881 88.2041C56.8881 88.9891 57.2065 89.6999 57.7211 90.2144Z" fill="#687780"/>
<path d="M86.5564 69.3644H77.5733C76.8064 69.3644 76.1851 68.7429 76.1851 67.9762C76.1851 67.2094 76.8066 66.5879 77.5733 66.5879H86.5564C87.3233 66.5879 87.9447 67.2094 87.9447 67.9762C87.9449 68.7429 87.3233 69.3644 86.5564 69.3644Z" fill="#687780"/>
<path d="M86.5564 73.998H77.5733C76.8064 73.998 76.1851 73.3764 76.1851 72.6097C76.1851 71.843 76.8066 71.2214 77.5733 71.2214H86.5564C87.3233 71.2214 87.9447 71.843 87.9447 72.6097C87.9449 73.3764 87.3233 73.998 86.5564 73.998Z" fill="#687780"/>
<path d="M86.5564 64.7311H77.5733C76.8064 64.7311 76.1851 64.1096 76.1851 63.3428C76.1851 62.5761 76.8066 61.9546 77.5733 61.9546H86.5564C87.3233 61.9546 87.9447 62.5761 87.9447 63.3428C87.9449 64.1096 87.3233 64.7311 86.5564 64.7311Z" fill="#687780"/>
<path d="M50.5178 69.3644H41.5345C40.7676 69.3644 40.1462 68.7429 40.1462 67.9762C40.1462 67.2094 40.7678 66.5879 41.5345 66.5879H50.5178C51.2847 66.5879 51.9061 67.2094 51.9061 67.9762C51.9061 68.7429 51.2845 69.3644 50.5178 69.3644Z" fill="#687780"/>
<path d="M50.5178 73.998H41.5345C40.7676 73.998 40.1462 73.3764 40.1462 72.6097C40.1462 71.843 40.7678 71.2214 41.5345 71.2214H50.5178C51.2847 71.2214 51.9061 71.843 51.9061 72.6097C51.9061 73.3764 51.2845 73.998 50.5178 73.998Z" fill="#687780"/>
<path d="M50.5178 64.7311H41.5345C40.7676 64.7311 40.1462 64.1096 40.1462 63.3428C40.1462 62.5761 40.7678 61.9546 41.5345 61.9546H50.5178C51.2847 61.9546 51.9061 62.5761 51.9061 63.3428C51.9061 64.1096 51.2845 64.7311 50.5178 64.7311Z" fill="#687780"/>
<path d="M13.7213 89.9563V91.0481H18.5474C21.2127 91.0481 23.3734 88.8874 23.3734 86.222H30.6125C31.9452 86.222 33.0255 85.1418 33.0255 83.809C33.0255 82.4763 31.9452 81.396 30.6125 81.396H22.2816C17.5539 81.396 13.7213 85.2286 13.7213 89.9563Z" fill="#F7B594"/>
<path d="M27.0419 81.3965C22.3142 81.3965 18.4805 85.2283 18.4805 89.9561V91.0482H13.7213V89.9561C13.7213 85.2283 17.5532 81.3965 22.2809 81.3965H27.0419Z" fill="#E5966E"/>
</g>
<defs>
<clipPath id="clip0">
<rect width="92" height="92" fill="white"/>
</clipPath>
</defs>
</svg>
